# xmcd CD database file
#
# Track frame offsets:
#	150
#	17588
#	34448
#	52266
#	72602
#	88121
#	103564
#	115607
#	134254
#	150700
#	168097
#	184421
#	201379
#	220503
#	236075
#
# Disc length: 3335 seconds
#
# Revision: 0
# Processed by: cddbd v1.5.2PL0 Copyright (c) Steve Scherf et al.
# Submitted via: CDex 1.51
#
DISCID=d80d050f
DTITLE=Blake Shelton - Loaded: The best of
DYEAR=2010
DGENRE=Country
TTITLE0=austin_01
TTITLE1=old red_02
TTITLE2=the baby_03
TTITLE3=playboys_04
TTITLE4=some beach_05
TTITLE5=goodbye time_06
TTITLE6=nobody but me_07
TTITLE7=dont make me_08
TTITLE8=the more i drink_09
TTITLE9=home_10
TTITLE10=she wouldnt be gone_11
TTITLE11=hilbilly bone_12
TTITLE12=kiss my country ass_13
TTITLE13=all about tonight_14
TTITLE14=who are you_15
EXTD=YEAR: 2010
EXTT0=
EXTT1=
EXTT2=
EXTT3=
EXTT4=
EXTT5=
EXTT6=
EXTT7=
EXTT8=
EXTT9=
EXTT10=
EXTT11=
EXTT12=
EXTT13=
EXTT14=
PLAYORDER=
